
<svg version="1.1" id="Layer_1" xmlns="http://www.w3.org/2000/svg" xmlns:xlink="http://www.w3.org/1999/xlink" x="0px"
	y="0px" height="60" viewBox="0 0 501.56 110.34" style="enable-background:new 0 0 501.56 110.34;" xml:space="preserve">
	<style type="text/css">
		.cd-logo-symbol-top-left {
			fill: #6D6E71;
		}

		.cd-logo-symbol-top-right {
			fill: #F47A55;
		}

		.cd-logo-symbol-bottom-right {
			fill: #EF4123;
		}

		.cd-logo-symbol-bottom-left {
			fill: #A19C94;
		}

		.cd-logo-caldera {
			fill: #F47A55;
		}

		.cd-logo-spas {
			fill: #6D6E71;
		}

		.cd-logo-comeToLife {
			fill: #6D6E71;
		}

		.cd-logo-spas {
			fill: #6D6E71;
		}
	</style>
	<g>
		<g>
			<path class="cd-logo-symbol-top-left" d="M53.87,65.51c-1.36-1.32-3.59-3.36-6.57-5.56c-16.88-12.46-28.58-8.3-38.74-18.29
			C7.61,40.72-1.69,31.3,0.27,19.7C1.99,9.58,11.49,2.12,20.74,0.41c10.77-1.99,19.38,4.47,26.15,9.51
			c7.52,5.61,11.47,11.78,12.68,13.77c3.41,5.63,8.42,13.89,6.44,24.06C64.06,57.75,56.53,63.63,53.87,65.51z" />
			<path class="cd-logo-symbol-top-right" d="M92.59,64.08c-1.83,1.93-6.03,6.48-8.13,13.68c-1.32,4.54-1.34,8.51-1.16,11.1
			c-2.02-3.31-4.54-8.14-6.32-14.32c-0.92-3.2-6.22-22.64,3.35-42.45c8-16.54,27.53-35.74,45.42-31.48
			c8.02,1.91,16.78,8.78,18.84,18.06c2.04,9.21-3.28,17.28-4.26,18.71C129.41,53.34,107.28,48.55,92.59,64.08z" />
			<path class="cd-logo-symbol-bottom-right" d="M125.52,87.63c-1.25-6.17-6.3-10.66-10.99-12.32c-5.34-1.89-8.77,0.38-17.19-2.26
			c-2.09-0.65-3.75-1.38-4.86-1.91c-6.39,9.62-6.84,20.97-1.39,28.12c3.71,4.87,9.16,6.47,10.66,6.89
			c1.79,0.5,12.28,3.17,19.25-3.97C121.36,101.81,127.15,95.68,125.52,87.63z" />
			<path class="cd-logo-symbol-bottom-left" d="M69.69,51.34c-2.88,6.91-7.97,15.73-17.23,20.23c-12.38,6.01-22.7-0.34-29.29,6.77
			c-5.14,5.55-5.65,16.72-0.02,23.18c5.53,6.35,14.67,5.48,16.13,5.32c11.6-1.3,18.42-12.19,22.09-18.06
			C70.39,74.37,70.36,59.16,69.69,51.34z" />
		</g>
		<path class="cd-logo-caldera" d="M192.87,59.9c-3.73,7.12-10.19,9.95-18.66,9.95c-13.49,0-19.85-7.97-19.85-17.92
		c0-11.78,8.09-18.05,19.8-18.05c7.47,0,15.07,2.83,18.18,9.8l-3.64,1.65c-2.44-5.61-7.85-7.96-14.49-7.96
		c-9.95,0-15.55,5.33-15.55,15.08c0,7.87,5.41,13.72,15.93,13.72c6.89,0,11.67-2.83,14.54-8.06L192.87,59.9z" />
		<path class="cd-logo-caldera" d="M222.82,65.18c0,1.46,0.19,2.5,0.43,3.82h-3.88c-0.19-0.75-0.48-1.98-0.48-2.97
		c-3.64,2.31-7.7,3.72-12.49,3.72c-4.11,0-10.19-1.13-10.19-7.49c0-8.53,12.97-8.86,22.72-9.99v-0.94c0-3.35-4.06-4.62-8.04-4.62
		c-6.65,0-8.99,2.73-10.23,4.15l-2.92-1.98c1.44-1.74,4.16-5.28,12.87-5.28c5.69,0,12.2,1.65,12.2,7.97v13.61
		C222.81,65.18,222.82,65.18,222.82,65.18z M218.94,55.37c-11.39,1.08-19.04,2.12-19.04,6.88c0,3.86,4.4,4.38,6.31,4.38
		c5.41,0,10.24-2.55,12.73-3.87L218.94,55.37L218.94,55.37z" />
		<rect x="229.99" y="34.73" class="cd-logo-caldera" width="3.88" height="34.27" />
		<path class="cd-logo-caldera" d="M268.22,34.73v29.65c0,0.66,0.24,3.86,0.29,4.62h-3.49l-0.48-3.87c-3.78,3.02-6.32,4.62-12.05,4.62
		c-9.67,0-13.68-7.26-13.68-12.87c0-5.7,3.64-13.29,14.35-13.29c5.17,0,7.75,1.65,11.19,4.15V34.73H268.22z M264.34,51.7
		c-2.3-2.36-5.55-4.85-10.96-4.85c-5.17,0-10.72,2.64-10.72,10.13c0,5.09,4.02,9.52,10.81,9.52c4.16,0,8.47-2.69,10.86-5.23V51.7
		H264.34z" />
		<path class="cd-logo-caldera" d="M301.08,63.86c-2.58,2.69-5.07,5.89-13.59,5.89c-8.42,0-14.16-5.66-14.16-13.2c0-7.82,5.98-12.96,13.68-12.96
		c7.99,0,14.97,4.1,14.78,13.86H277.2c0.38,4.62,4.16,9.05,10.67,9.05c6.46,0,8.61-2.88,10.19-4.81L301.08,63.86z M297.59,54.2
		c-0.77-4.05-4.31-7.35-10.24-7.35c-5.69,0-8.9,2.83-10,7.35H297.59z" />
		<path class="cd-logo-caldera" d="M307.3,44.34h3.87v5.14c2.25-2.5,5.41-5.89,10.43-5.89c0.86,0,1.58,0.05,2.29,0.19v3.82
		c-0.48-0.05-1.44-0.33-3.11-0.33c-5.5,0-9.47,6.27-9.62,6.97v14.75h-3.87L307.3,44.34L307.3,44.34z" />
		<path class="cd-logo-caldera" d="M353.08,65.18c0,1.46,0.19,2.5,0.43,3.82h-3.87c-0.19-0.75-0.48-1.98-0.48-2.97
		c-3.64,2.31-7.7,3.72-12.48,3.72c-4.12,0-10.19-1.13-10.19-7.49c0-8.53,12.96-8.86,22.72-9.99v-0.94c0-3.35-4.07-4.62-8.04-4.62
		c-6.65,0-8.99,2.73-10.24,4.15l-2.92-1.98c1.44-1.74,4.16-5.28,12.87-5.28c5.69,0,12.2,1.65,12.2,7.97L353.08,65.18L353.08,65.18z
		 M349.2,55.37c-11.39,1.08-19.04,2.12-19.04,6.88c0,3.86,4.4,4.38,6.32,4.38c5.4,0,10.24-2.55,12.72-3.87V55.37z" />
		<g>
			<path class="cd-logo-spas" d="M361.74,59.19c2.01,2.64,5.36,6.98,15.79,6.98c5.36,0,12.68-1.51,12.68-6.84c0-10.42-30.33-1.27-30.33-15.18
			c0-7.31,6.84-10.28,16.32-10.28c9.18,0,14.83,3.72,17.22,7.02l-3.06,2.45c-1.43-1.6-4.78-5.98-14.25-5.98
			c-6.98,0-11.91,1.79-11.91,6.13c0,10.37,30.33,0.47,30.33,15.84c0,5.75-5.65,10.51-17.46,10.51c-11.39,0-15.6-4.67-18.56-7.92
			L361.74,59.19z" />
			<path class="cd-logo-spas" d="M400.25,44.34h3.88v3.73c3.59-2.88,6.12-4.48,11.86-4.48c9.66,0,13.68,7.26,13.68,12.87
			c0,5.71-3.63,13.29-14.35,13.29c-5.17,0-7.75-1.65-11.19-4.15v12.06h-3.88L400.25,44.34L400.25,44.34z M404.12,61.65
			c2.29,2.35,5.55,4.85,10.95,4.85c5.17,0,10.72-2.64,10.72-10.13c0-5.09-4.02-9.52-10.81-9.52c-4.16,0-8.47,2.69-10.86,5.23
			L404.12,61.65L404.12,61.65z" />
			<path class="cd-logo-spas" d="M459.33,65.18c0,1.46,0.19,2.5,0.43,3.82h-3.88c-0.19-0.75-0.48-1.98-0.48-2.97
			c-3.63,2.31-7.7,3.72-12.48,3.72c-4.12,0-10.19-1.13-10.19-7.49c0-8.53,12.96-8.86,22.72-9.99v-0.94c0-3.35-4.07-4.62-8.04-4.62
			c-6.65,0-8.99,2.73-10.24,4.15l-2.92-1.98c1.43-1.74,4.16-5.28,12.87-5.28c5.69,0,12.2,1.65,12.2,7.97v13.61
			C459.32,65.18,459.33,65.18,459.33,65.18z M455.45,55.37c-11.38,1.08-19.04,2.12-19.04,6.88c0,3.86,4.4,4.38,6.32,4.38
			c5.4,0,10.24-2.55,12.72-3.87V55.37z" />
			<path class="cd-logo-spas" d="M467.27,61.31c2.44,3.02,6.08,5.18,11.34,5.18c4.11,0,7.84-1.27,7.84-4.2c0-6.98-20.81-1.04-20.81-11.22
			c0-5.61,5.84-7.5,11.1-7.5c8.42,0,11.48,3.54,12.78,5.33l-2.63,2.35c-2.06-2.59-5.26-4.43-10.19-4.43c-4.59,0-7.18,1.42-7.18,4.01
			c0,6.36,20.81,0.61,20.81,11.17c0,5.66-5.64,7.73-12.05,7.73c-5.55,0-10.14-1.55-13.87-5.84L467.27,61.31z" />
		</g>
		<path class="cd-logo-comeToLife" d="M251.84,95.9c-0.16,1.09-0.24,2.13-0.22,3.11s0.2,1.85,0.54,2.58c0.34,0.74,0.87,1.33,1.6,1.78
		c0.73,0.44,1.72,0.66,3,0.66c0.4,0,0.78-0.01,1.16-0.03s0.79-0.06,1.24-0.12c0.45-0.06,0.94-0.15,1.48-0.25
		c0.54-0.11,1.16-0.24,1.86-0.4l0.16,1.19c-1.08,0.3-2.12,0.52-3.15,0.66c-1.02,0.14-2.03,0.21-3.04,0.21
		c-1.53,0-2.73-0.25-3.63-0.74c-0.9-0.49-1.56-1.17-1.99-2.03c-0.43-0.85-0.67-1.85-0.71-2.99c-0.04-1.14,0.02-2.35,0.2-3.64
		c0.18-1.23,0.45-2.41,0.81-3.52c0.36-1.11,0.88-2.08,1.55-2.91s1.53-1.49,2.57-1.98c1.04-0.48,2.32-0.73,3.84-0.73
		c1.01,0,2,0.07,2.97,0.21c0.98,0.14,1.97,0.36,2.97,0.66l-0.49,1.2c-0.66-0.16-1.25-0.29-1.76-0.4c-0.51-0.1-0.98-0.19-1.4-0.25
		c-0.42-0.06-0.82-0.1-1.19-0.12c-0.38-0.02-0.76-0.03-1.16-0.03c-1.27,0-2.33,0.21-3.19,0.65c-0.85,0.43-1.55,1.02-2.1,1.75
		s-0.97,1.57-1.26,2.52C252.21,93.89,251.99,94.87,251.84,95.9" />
		<path class="cd-logo-comeToLife" d="M270.45,105.3c-1.07,0-1.96-0.17-2.65-0.5c-0.69-0.34-1.22-0.81-1.6-1.42s-0.61-1.34-0.7-2.19
		c-0.09-0.85-0.06-1.78,0.08-2.78c0.14-1,0.38-1.94,0.7-2.78c0.32-0.85,0.76-1.58,1.32-2.19s1.23-1.08,2.02-1.42
		c0.79-0.33,1.72-0.5,2.8-0.5s1.96,0.17,2.65,0.5c0.69,0.34,1.23,0.81,1.61,1.42c0.38,0.61,0.62,1.34,0.71,2.19
		c0.09,0.85,0.06,1.78-0.08,2.78c-0.14,1.01-0.38,1.94-0.71,2.78c-0.33,0.85-0.78,1.58-1.33,2.19c-0.56,0.61-1.23,1.08-2.01,1.42
		C272.46,105.13,271.53,105.3,270.45,105.3 M272.25,92.66c-0.86,0-1.6,0.15-2.2,0.46c-0.61,0.31-1.12,0.72-1.53,1.24
		s-0.74,1.13-0.98,1.83c-0.24,0.7-0.42,1.43-0.52,2.21c-0.11,0.78-0.15,1.51-0.11,2.21s0.19,1.31,0.46,1.83
		c0.27,0.52,0.66,0.93,1.18,1.24s1.21,0.47,2.07,0.47c0.86,0,1.59-0.16,2.2-0.47c0.61-0.31,1.12-0.72,1.54-1.24
		c0.41-0.52,0.74-1.13,1-1.83c0.25-0.7,0.43-1.43,0.54-2.21c0.11-0.78,0.14-1.51,0.1-2.21s-0.2-1.31-0.47-1.83
		c-0.27-0.52-0.66-0.93-1.18-1.24C273.8,92.82,273.11,92.66,272.25,92.66" />
		<path class="cd-logo-comeToLife" d="M281.07,105.03h-1.37l1.88-13.25h1.38l-0.3,1.99h0.05c0.32-0.27,0.66-0.53,1.02-0.81
		c0.36-0.27,0.74-0.52,1.14-0.73c0.4-0.21,0.83-0.38,1.29-0.51c0.46-0.13,0.93-0.2,1.44-0.2c2.03,0,3.17,0.81,3.41,2.44
		c0.34-0.3,0.71-0.6,1.12-0.89c0.4-0.29,0.83-0.55,1.28-0.78c0.45-0.23,0.91-0.42,1.4-0.56s0.98-0.21,1.48-0.21
		c2.69,0,3.83,1.44,3.41,4.32l-1.29,9.19h-1.37l1.26-8.93c0.07-0.48,0.08-0.92,0.03-1.34c-0.05-0.41-0.18-0.78-0.39-1.1
		c-0.2-0.31-0.5-0.56-0.89-0.74s-0.88-0.27-1.5-0.27c-0.43,0-0.85,0.07-1.28,0.22c-0.42,0.14-0.83,0.31-1.21,0.51
		c-0.39,0.21-0.75,0.42-1.09,0.67c-0.34,0.24-0.64,0.46-0.91,0.67c0.02,0.21,0.02,0.44,0,0.69s-0.04,0.49-0.08,0.74l-1.26,8.88
		h-1.34l1.26-8.98c0.07-0.46,0.08-0.89,0.03-1.31c-0.06-0.42-0.18-0.78-0.39-1.09c-0.21-0.31-0.5-0.55-0.89-0.73
		s-0.88-0.27-1.5-0.27c-0.45,0-0.88,0.07-1.29,0.2s-0.8,0.3-1.17,0.5c-0.37,0.2-0.72,0.43-1.04,0.66c-0.32,0.24-0.62,0.45-0.89,0.65
		L281.07,105.03z" />
		<path class="cd-logo-comeToLife" d="M304.11,98.49c-0.11,0.83-0.12,1.59-0.04,2.28s0.29,1.28,0.62,1.79c0.33,0.5,0.81,0.9,1.42,1.18
		c0.62,0.28,1.41,0.42,2.38,0.42c0.73,0,1.44-0.03,2.12-0.09s1.4-0.21,2.15-0.44l0.05,1.11c-0.83,0.21-1.59,0.36-2.3,0.44
		s-1.5,0.12-2.38,0.12c-1.19,0-2.17-0.17-2.95-0.5c-0.78-0.34-1.38-0.81-1.8-1.42c-0.42-0.61-0.68-1.34-0.78-2.18
		c-0.1-0.85-0.08-1.78,0.07-2.78c0.14-1.01,0.39-1.94,0.73-2.78c0.34-0.85,0.8-1.58,1.39-2.18c0.58-0.61,1.3-1.08,2.14-1.42
		c0.84-0.33,1.84-0.5,2.98-0.5c0.92,0,1.67,0.12,2.25,0.35c0.58,0.23,1.04,0.53,1.38,0.9s0.58,0.8,0.71,1.28
		c0.14,0.48,0.2,0.98,0.18,1.5c-0.02,0.51-0.09,1.02-0.2,1.54c-0.12,0.51-0.26,0.98-0.41,1.4h-9.71L304.11,98.49L304.11,98.49z
		 M309.71,92.58c-0.86,0-1.6,0.13-2.22,0.4c-0.62,0.26-1.14,0.62-1.57,1.09c-0.43,0.46-0.78,0.99-1.05,1.59s-0.48,1.25-0.62,1.93
		h8.47c0.18-0.57,0.3-1.14,0.35-1.74c0.05-0.59-0.02-1.13-0.23-1.61c-0.21-0.49-0.55-0.88-1.05-1.19
		C311.3,92.74,310.6,92.58,309.71,92.58" />
		<path class="cd-logo-comeToLife" d="M323.9,92.79h-2.21l0.13-0.9l2.24-0.11l0.7-3.71h1.18l-0.51,3.71h4.17l-0.16,1.01h-4.17l-1.16,8.13
		c-0.07,0.51-0.1,0.97-0.08,1.38c0.02,0.41,0.11,0.75,0.27,1.03s0.4,0.5,0.71,0.65s0.73,0.22,1.25,0.22c0.23,0,0.47-0.01,0.7-0.04
		s0.52-0.06,0.86-0.09v1.03c-0.34,0.04-0.69,0.07-1.05,0.12c-0.36,0.04-0.69,0.07-0.99,0.07c-0.61,0-1.13-0.07-1.57-0.2
		s-0.79-0.36-1.05-0.69c-0.26-0.32-0.42-0.75-0.5-1.28c-0.07-0.53-0.05-1.19,0.06-1.99L323.9,92.79z" />
		<path class="cd-logo-comeToLife"
			d="M336.19,105.3c-1.07,0-1.96-0.17-2.65-0.5c-0.69-0.34-1.22-0.81-1.6-1.42c-0.37-0.61-0.61-1.34-0.7-2.19
		c-0.09-0.85-0.06-1.78,0.08-2.78c0.15-1,0.38-1.94,0.7-2.78c0.32-0.85,0.76-1.58,1.32-2.19c0.55-0.61,1.23-1.08,2.02-1.42
		c0.79-0.33,1.72-0.5,2.79-0.5c1.08,0,1.96,0.17,2.65,0.5c0.69,0.34,1.23,0.81,1.62,1.42c0.39,0.61,0.62,1.34,0.71,2.19
		c0.09,0.85,0.06,1.78-0.08,2.78c-0.14,1.01-0.38,1.94-0.71,2.78c-0.33,0.85-0.78,1.58-1.33,2.19c-0.56,0.61-1.23,1.08-2.02,1.42
		C338.2,105.13,337.27,105.3,336.19,105.3 M338,92.66c-0.86,0-1.6,0.15-2.21,0.46s-1.12,0.72-1.53,1.24s-0.74,1.13-0.98,1.83
		c-0.24,0.7-0.42,1.43-0.52,2.21c-0.11,0.78-0.14,1.51-0.11,2.21c0.04,0.7,0.19,1.31,0.46,1.83c0.27,0.52,0.66,0.93,1.18,1.24
		s1.21,0.47,2.07,0.47c0.86,0,1.59-0.16,2.2-0.47c0.61-0.31,1.12-0.72,1.53-1.24s0.75-1.13,0.99-1.83c0.25-0.7,0.43-1.43,0.54-2.21
		c0.11-0.78,0.14-1.51,0.1-2.21s-0.2-1.31-0.47-1.83c-0.27-0.52-0.67-0.93-1.18-1.24C339.55,92.82,338.86,92.66,338,92.66" />
		<polygon class="cd-logo-comeToLife"
			points="361.63,103.76 361.47,105.04 350.55,105.04 353.1,87.02 354.53,87.02 352.14,103.76 	" />
		<path class="cd-logo-comeToLife"
			d="M366.68,91.79h1.37l-1.88,13.25h-1.37L366.68,91.79z M367.44,86.49h1.37l-0.43,2.99h-1.37L367.44,86.49z" />
		<path class="cd-logo-comeToLife" d="M375.07,91.79h3.63l-0.16,1.01h-3.63l-2.5,17.54h-1.37l2.5-17.54h-2.21l0.14-0.9l2.23-0.11l0.27-1.94
		c0.18-1.22,0.58-2.08,1.2-2.59c0.62-0.51,1.57-0.77,2.86-0.77c0.31,0,0.61,0.02,0.93,0.05c0.31,0.04,0.65,0.08,1.01,0.14
		l-0.32,1.08c-0.39-0.05-0.72-0.09-0.98-0.11c-0.26-0.02-0.53-0.03-0.82-0.03c-0.84,0-1.44,0.19-1.8,0.56
		c-0.36,0.37-0.6,0.98-0.73,1.83L375.07,91.79z" />
		<path class="cd-logo-comeToLife" d="M380.61,98.49c-0.11,0.83-0.12,1.59-0.04,2.28s0.29,1.28,0.62,1.79c0.33,0.5,0.81,0.9,1.42,1.18
		c0.62,0.28,1.42,0.42,2.38,0.42c0.73,0,1.44-0.03,2.12-0.09s1.4-0.21,2.15-0.44l0.05,1.11c-0.83,0.21-1.59,0.36-2.3,0.44
		s-1.5,0.12-2.38,0.12c-1.18,0-2.17-0.17-2.95-0.5c-0.78-0.34-1.38-0.81-1.8-1.42c-0.42-0.61-0.68-1.34-0.78-2.18
		c-0.1-0.85-0.07-1.78,0.07-2.78c0.14-1.01,0.39-1.94,0.73-2.78c0.34-0.85,0.8-1.58,1.39-2.18c0.58-0.61,1.29-1.08,2.14-1.42
		c0.84-0.33,1.84-0.5,2.98-0.5c0.92,0,1.66,0.12,2.25,0.35c0.58,0.23,1.04,0.53,1.38,0.9s0.58,0.8,0.71,1.28
		c0.13,0.48,0.19,0.98,0.17,1.5c-0.02,0.51-0.08,1.02-0.2,1.54c-0.12,0.51-0.25,0.98-0.41,1.4h-9.7L380.61,98.49L380.61,98.49z
		 M386.21,92.58c-0.86,0-1.6,0.13-2.22,0.4c-0.62,0.26-1.14,0.62-1.57,1.09c-0.43,0.46-0.78,0.99-1.05,1.59s-0.48,1.25-0.62,1.93
		h8.47c0.18-0.57,0.3-1.14,0.35-1.74c0.05-0.59-0.02-1.13-0.23-1.61c-0.21-0.49-0.55-0.88-1.05-1.19
		C387.8,92.74,387.1,92.58,386.21,92.58" />
		<g>
			<path class="cd-logo-spas" d="M493.95,47.51c0-0.53,0.1-1.02,0.3-1.48c0.2-0.46,0.47-0.86,0.82-1.2s0.75-0.61,1.21-0.8
			c0.46-0.2,0.95-0.3,1.48-0.3s1.02,0.1,1.48,0.3c0.46,0.2,0.87,0.47,1.21,0.8c0.35,0.34,0.62,0.74,0.81,1.2
			c0.2,0.46,0.3,0.95,0.3,1.48s-0.1,1.02-0.3,1.48c-0.2,0.46-0.47,0.86-0.81,1.2c-0.35,0.34-0.75,0.61-1.21,0.8
			c-0.46,0.2-0.96,0.3-1.48,0.3c-0.53,0-1.02-0.1-1.48-0.3c-0.46-0.2-0.86-0.47-1.21-0.8c-0.35-0.34-0.62-0.74-0.82-1.2
			S493.95,48.04,493.95,47.51z M494.76,47.51c0,0.41,0.08,0.8,0.24,1.17s0.37,0.69,0.64,0.97c0.27,0.28,0.59,0.5,0.95,0.65
			c0.36,0.16,0.75,0.24,1.16,0.24s0.8-0.08,1.17-0.24s0.69-0.38,0.96-0.65c0.27-0.28,0.48-0.6,0.64-0.97s0.24-0.76,0.24-1.17
			s-0.08-0.8-0.24-1.16s-0.37-0.68-0.64-0.95c-0.27-0.27-0.59-0.48-0.96-0.63s-0.76-0.23-1.17-0.23s-0.8,0.08-1.16,0.23
			c-0.36,0.16-0.68,0.37-0.95,0.63c-0.27,0.27-0.48,0.58-0.64,0.95C494.84,46.71,494.76,47.1,494.76,47.51z M497.66,48.34h-0.34
			v1.03h-1.09v-3.71h1.6c0.48,0,0.87,0.11,1.16,0.33s0.44,0.56,0.44,1c0,0.29-0.06,0.53-0.18,0.72c-0.12,0.19-0.27,0.34-0.46,0.44
			l0.8,1.22h-1.34L497.66,48.34z M497.32,47.38h0.51c0.13,0,0.24-0.02,0.34-0.07s0.15-0.15,0.15-0.32c0-0.16-0.05-0.26-0.15-0.31
			c-0.1-0.05-0.21-0.07-0.34-0.07h-0.51V47.38z" />
		</g>
	</g>
</svg>